<?xml version="1.0" encoding="UTF-8" standalone="no"?>
<svg
   xmlns:dc="http://purl.org/dc/elements/1.1/"
   xmlns:cc="http://creativecommons.org/ns#"
   xmlns:rdf="http://www.w3.org/1999/02/22-rdf-syntax-ns#"
   xmlns:svg="http://www.w3.org/2000/svg"
   xmlns="http://www.w3.org/2000/svg"
   xmlns:sodipodi="http://sodipodi.sourceforge.net/DTD/sodipodi-0.dtd"
   xmlns:inkscape="http://www.inkscape.org/namespaces/inkscape"
   width="1280"
   height="720"
   viewBox="0 0 338.66667 190.5"
   version="1.1"
   id="svg8"
   inkscape:version="1.0.1 (3bc2e813f5, 2020-09-07)"
   sodipodi:docname="bb-logo.svg">
  <defs
     id="defs2">
    <inkscape:path-effect
       effect="fillet_chamfer"
       id="path-effect854"
       is_visible="true"
       lpeversion="1"
       satellites_param="F,0,0,1,0,2.6458333,0,1 @ F,0,0,1,0,2.6458333,0,1 @ F,0,0,1,0,2.6458333,0,1 @ F,0,0,1,0,2.6458333,0,1"
       unit="px"
       method="auto"
       mode="F"
       radius="10"
       chamfer_steps="1"
       flexible="false"
       use_knot_distance="true"
       apply_no_radius="true"
       apply_with_radius="true"
       only_selected="false"
       hide_knots="false" />
  </defs>
  <sodipodi:namedview
     id="base"
     pagecolor="#ffffff"
     bordercolor="#666666"
     borderopacity="1.0"
     inkscape:pageopacity="0.0"
     inkscape:pageshadow="2"
     inkscape:zoom="0.49497475"
     inkscape:cx="591.56563"
     inkscape:cy="320.2906"
     inkscape:document-units="mm"
     inkscape:current-layer="layer2"
     inkscape:document-rotation="0"
     showgrid="false"
     units="px"
     inkscape:window-width="1920"
     inkscape:window-height="1019"
     inkscape:window-x="1920"
     inkscape:window-y="32"
     inkscape:window-maximized="1" />
  <metadata
     id="metadata5">
    <rdf:RDF>
      <cc:Work
         rdf:about="">
        <dc:format>image/svg+xml</dc:format>
        <dc:type
           rdf:resource="http://purl.org/dc/dcmitype/StillImage" />
        <dc:title></dc:title>
      </cc:Work>
    </rdf:RDF>
  </metadata>
  <g
     inkscape:label="Layer 1"
     inkscape:groupmode="layer"
     id="layer1"
     style="display:inline" />
  <g
     inkscape:groupmode="layer"
     id="layer2"
     inkscape:label="Layer 2">
    <path
       id="path856"
       style="display:none;fill:none;stroke:#000000;stroke-width:0.264583px;stroke-linecap:butt;stroke-linejoin:miter;stroke-opacity:1"
       d="M 93.845011,139.5 98,161.5 h 15.5 l 3.99836,-22 z m 46.927489,-22.18397 -69.807472,0.044 a 2.2472229,2.2472229 0 0 0 -2.215948,2.61235 l 10.148788,61.63317 a 3.1171378,3.1171378 0 0 0 3.075718,2.61068 h 48.121094 a 3.1016071,3.1016071 0 0 0 3.06284,-2.61276 l 9.8438,-61.67631 a 2.2555952,2.2555952 0 0 0 -2.22882,-2.61109 z" />
    <g
       id="g972"
       transform="translate(-0.6666671,0.25)"
       style="fill:#2684ff;fill-opacity:1">
      <path
         id="path916"
         style="fill:#2684ff;fill-opacity:1;stroke:none;stroke-width:0.50398px;stroke-linecap:butt;stroke-linejoin:miter;stroke-opacity:1"
         d="M 188.81972,57.358154 181.05632,10 l 41.58695,1.36e-4 6.94194,42.34787 96.12407,-0.0609 v 7.4e-5 c 2.63827,-0.0015 4.65196,2.367798 4.23616,4.984589 L 311.23605,175.01223 C 310.77946,177.88572 308.31179,180 305.41475,180 h -91.4602 c -2.90049,0 -5.37453,-2.10919 -5.84578,-4.98378 L 188.81972,57.358099 m 55.59505,79.276531 h 29.45969 l 7.59939,-41.998131 h -44.81364 z" />
      <path
         id="path916-5"
         style="fill:#2684ff;fill-opacity:1;stroke:none;stroke-width:0.50398px;stroke-linecap:butt;stroke-linejoin:miter;stroke-opacity:1"
         d="M 17.7634,57.358154 10,10 l 41.58697,1.36e-4 6.94192,42.34787 96.12407,-0.0609 v 7.4e-5 c 2.63828,-0.0015 4.65196,2.367798 4.23617,4.984589 L 140.17974,175.01222 c -0.45662,2.87349 -2.92428,4.98777 -5.82132,4.98777 H 42.89824 c -2.90051,0 -5.37453,-2.10919 -5.84579,-4.98378 L 17.7634,57.358099 m 55.59505,79.276531 h 29.45969 l 7.5994,-41.998131 H 65.60391 Z" />
    </g>
  </g>
</svg>
